<?xml version="1.0" encoding="UTF-8"?>
<svg viewBox="0 0 54.196625 48.656712" xmlns="http://www.w3.org/2000/svg">
 <defs>
  <linearGradient id="c" x1="621.35" x2="649.38" y1="387.4" y2="424.73" gradientTransform="matrix(1.0614 0 0 .94212 -312.58 -154.34)" gradientUnits="userSpaceOnUse">
   <stop stop-color="#fffd26" offset="0"/>
   <stop stop-color="#967f00" offset="1"/>
  </linearGradient>
  <linearGradient id="b" x1="714" x2="745.22" y1="328.41" y2="359.15" gradientTransform="matrix(.90172 0 0 1.109 -312.58 -154.34)" gradientUnits="userSpaceOnUse">
   <stop stop-color="#fff" offset="0"/>
   <stop stop-color="#fff" stop-opacity="0" offset="1"/>
  </linearGradient>
  <linearGradient id="a" x1="786.65" x2="818.39" y1="302.44" y2="338.76" gradientTransform="matrix(.64585 0 0 .87583 -151.44 -50.61)" gradientUnits="userSpaceOnUse">
   <stop stop-color="#fff" stop-opacity=".72656" offset="0"/>
   <stop stop-color="#fff" offset="1"/>
  </linearGradient>
 </defs>
 <g transform="translate(-334.34 -203.97)">
  <path d="m356.37 207.63-20.938 36.312c-2.7536 4.7756-0.02627 8.6875 5.125 8.6875h41.906c5.1094 0 7.532-4.5733 5.1562-8.6875l-20.969-36.312c-2.8029-4.8539-7.4575-4.8972-10.281 0z" fill="#a6a700"/>
  <path d="m356.73 209.8-19.131 33.179c-3.0744 5.332-1.3298 7.9378 4.6827 7.9378h38.29c5.7131 0 7.9111-2.3966 4.7113-7.9378l-19.159-33.179c-2.8764-4.9812-6.4816-5.0512-9.394 0z" fill="url(#c)" stroke="#fff" stroke-width=".68595"/>
  <path d="m361.45 206.03c-1.6249-0.00874-3.2625 1.2556-4.7188 3.7812l-19.125 33.156c-3.0744 5.332-1.3251 7.9375 4.6875 7.9375h2.9688c-0.0014-0.11718-0.03125-0.22625-0.03125-0.34375-1e-5 -15.306 11.992-27.796 27.375-29.562l-6.4688-11.188c-1.4382-2.4906-3.0626-3.7725-4.6875-3.7812z" fill="url(#b)"/>
  <path d="m361.34 241.67c-1.6872 0-3.0463 1.3591-3.0463 2.9994 0 1.6872 1.3591 3.0463 3.0463 3.0463 1.6403 0 2.9994-1.3591 2.9994-3.0463 0-1.6403-1.3591-2.9994-2.9994-2.9994m0.74985-2.7182v-1.4528c0-1.7809 0.37493-5.2489 0.79672-7.4516l1.3122-6.3737c0.42179-2.1558 0.65612-3.7961 0.65612-4.7803 0-2.7182-1.2654-4.3116-3.3743-4.3116-2.2495 0-3.3743 1.5466-3.3743 4.7334 0 1.031 0 1.031 0.56239 4.2179l1.031 6.1394c0.37492 2.0152 0.70298 5.9988 0.70298 7.7797v1.4997h1.6872" fill="url(#a)"/>
 </g>
</svg>
